<mxfile host="app.diagrams.net" modified="2024-02-05T12:48:25.692Z" agent="Mozilla/5.0 (X11; Linux x86_64; rv:109.0) Gecko/20100101 Firefox/115.0" version="23.1.1" etag="OHRB4CUyH3MwltsGQ57w" type="github">
  <diagram name="Page-1" id="tgCQISa65MN7KnZ_DSkv">
    <mxGraphModel>
      <root>
        <mxCell id="0" />
        <mxCell id="1" parent="0" />
      </root>
    </mxGraphModel>
  </diagram>
</mxfile>
